# xmcd CD database file
#
# Track frame offsets:
#	150
#	13905
#	25192
#	37892
#	51817
#	77218
#	91628
#	108050
#	122135
#	144745
#	156408
#	169790
#	183582
#	196600
#	209135
#	226458
#	237923
#	252627
#
# Disc length: 3549 seconds
#
# Revision: 0
# Processed by: cddbd v1.4PL0 Copyright (c) Steve Scherf et al.
# Submitted via: CDex 1.50
#
DISCID=f40ddb12
DTITLE=Varios Artistas - Uncle Sam Blues
DYEAR=1900
DGENRE=Blues
TTITLE0=Bukka White Army Blues
TTITLE1=Lightnin' Slim G I Blues
TTITLE2=Louisiana Red Red's Dream
TTITLE3=J B Lenoir Vietnam Blues
TTITLE4=Cooper Terry Stormy Desert
TTITLE5=Memphis Willie Brown Overseas Blues
TTITLE6=Snooky Pryor Uncle Sam Don't Take My Man
TTITLE7=Sunnyland Slim Back To Korea Blues
TTITLE8=Junior Wells Vietcong Blues
TTITLE9=Brownnie Mcghee Nillion Lonesome Women
TTITLE10=Dr Clayton Pearl Harbour Blues
TTITLE11=Dr Clayton 41 Blues
TTITLE12=Big Boy Cudrup Give Me A 33 20
TTITLE13=Sonny Boy Williamson I Iº Win The War Blues
TTITLE14=David Edwards The Army Blues
TTITLE15=Homer Harris Atomic Bomb Blues
TTITLE16=Johnny Shines So Cold In Vietnam
TTITLE17=Lightnin' Hopkins Sad News From Korea
EXTD=
EXTT0=
EXTT1=
EXTT2=
EXTT3=
EXTT4=
EXTT5=
EXTT6=
EXTT7=
EXTT8=
EXTT9=
EXTT10=
EXTT11=
EXTT12=
EXTT13=
EXTT14=
EXTT15=
EXTT16=
EXTT17=
PLAYORDER=
